<?xml version="1.0" standalone="no"?>
<!DOCTYPE svg PUBLIC "-//W3C//DTD SVG 20010904//EN"
 "http://www.w3.org/TR/2001/REC-SVG-20010904/DTD/svg10.dtd">
<svg version="1.0" xmlns="http://www.w3.org/2000/svg"
 width="400.000000pt" height="400.000000pt" viewBox="0 0 400.000000 400.000000"
 preserveAspectRatio="xMidYMid meet">

<g transform="translate(0.000000,400.000000) scale(0.100000,-0.100000)"
fill="#000000" stroke="none">
<path d="M1550 3968 c-405 -21 -800 -226 -1074 -558 -84 -101 -135 -181 -199
-309 -75 -149 -101 -226 -137 -415 -28 -142 -28 -412 -1 -556 76 -408 300
-761 633 -999 l97 -69 -29 -12 c-17 -7 -44 -28 -60 -47 l-30 -34 0 -465 0
-465 1523 7 c1427 6 1523 7 1540 24 18 17 15 20 -65 92 -46 42 -114 103 -153
137 -225 196 -334 293 -363 323 l-32 34 14 85 c21 122 53 328 71 449 19 126
41 273 60 395 8 50 21 140 30 200 9 61 22 151 30 200 8 50 19 127 26 173 7 45
15 82 19 82 3 0 30 -42 60 -92 92 -158 102 -171 115 -156 21 22 48 119 47 172
0 28 -10 75 -21 104 -11 28 -19 52 -16 52 2 0 28 -11 57 -24 99 -45 173 -74
177 -70 5 5 2 102 -4 134 -11 58 -95 111 -213 135 l-34 7 62 38 c86 53 86 53
43 82 -94 62 -160 58 -229 -13 l-37 -38 -24 49 c-31 63 -76 90 -147 90 l-52 0
-23 73 c-13 39 -28 88 -33 107 -6 19 -16 52 -23 73 l-13 37 49 0 c43 0 51 3
61 25 11 24 7 30 -63 101 -47 47 -93 84 -126 99 -57 26 -68 52 -38 85 14 15 6
24 -87 96 -57 43 -132 106 -168 140 -177 166 -381 284 -620 359 -198 61 -343
77 -600 63z m435 -74 c221 -46 388 -120 567 -250 74 -54 209 -176 248 -226
l32 -39 -27 -39 c-45 -66 -48 -66 -97 -17 -58 58 -86 64 -162 36 -97 -35 -98
-39 -22 -97 37 -28 63 -52 59 -55 -4 -2 -35 -8 -68 -12 -95 -11 -144 -40 -172
-102 -17 -36 -23 -66 -21 -96 l3 -45 115 39 c63 21 120 39 126 39 6 0 -3 -27
-19 -60 -43 -86 -46 -145 -13 -215 14 -30 28 -55 30 -55 2 0 26 30 53 67 64
90 74 104 99 142 l21 32 7 -28 c4 -15 11 -228 16 -473 5 -245 14 -503 20 -575
6 -71 12 -195 13 -275 l1 -145 -33 -60 c-40 -72 -59 -94 -133 -151 l-57 -44
-43 29 c-34 23 -47 41 -62 83 -27 78 -145 376 -167 424 -10 22 -19 44 -19 48
0 7 -12 34 -86 193 -19 40 -34 75 -34 78 0 2 -20 46 -44 97 -68 145 -96 206
-96 212 0 3 35 -19 78 -49 42 -30 97 -66 121 -81 l43 -26 21 20 20 21 -55 98
c-31 54 -65 117 -77 141 l-21 42 94 0 c51 0 108 3 125 6 l31 7 -26 46 c-15 25
-39 60 -55 76 -28 29 -33 30 -117 30 -48 0 -101 -3 -119 -7 l-32 -7 44 72 c24
39 41 75 39 79 -3 5 -31 8 -62 8 -102 -1 -176 -52 -188 -131 l-6 -37 -46 29
c-84 53 -153 48 -219 -14 -50 -47 -49 -49 75 -97 34 -13 49 -27 29 -27 -7 0
-40 -12 -75 -28 -104 -47 -142 -109 -128 -211 10 -78 13 -79 101 -18 44 30 92
62 108 70 l27 15 -6 -99 c-8 -110 -1 -133 59 -190 l34 -33 44 136 c25 75 49
137 54 137 15 2 75 -123 122 -252 23 -63 81 -223 129 -355 48 -132 93 -258
101 -280 7 -22 19 -50 25 -62 6 -13 9 -25 7 -28 -3 -2 -50 23 -104 57 -244
150 -342 207 -365 213 -35 8 -67 -7 -240 -114 -8 -5 -73 -45 -145 -87 -71 -43
-219 -131 -327 -196 -108 -65 -202 -118 -209 -118 -34 0 -184 114 -308 234
-169 165 -301 362 -371 557 -64 178 -75 244 -74 469 0 161 3 221 17 280 37
155 65 250 92 315 7 17 24 57 38 90 65 155 169 306 300 438 207 206 443 327
767 394 166 34 449 37 595 7z m1075 -900 c57 -66 109 -224 110 -334 l1 -55
-116 -110 c-108 -102 -115 -111 -102 -129 13 -18 21 -18 118 -9 57 5 105 9
106 9 2 -1 -33 -225 -53 -341 -20 -114 -57 -234 -95 -305 -34 -64 -115 -170
-129 -170 -6 0 -10 37 -10 88 0 48 -7 169 -15 267 -9 99 -16 207 -16 240 0 33
-6 143 -14 245 -8 102 -17 248 -20 324 -3 77 -8 157 -11 178 -5 30 -3 38 9 38
8 0 17 -4 19 -9 2 -5 31 -42 65 -83 34 -40 70 -83 80 -96 16 -20 22 -22 47
-13 24 10 27 15 21 39 -4 15 -8 39 -10 54 -2 15 -9 46 -15 70 -7 24 -14 52
-16 63 -2 11 -6 32 -10 48 -8 39 17 35 56 -9z m286 -882 c-10 -53 -24 -133
-31 -177 -8 -44 -22 -123 -32 -175 -9 -52 -16 -98 -15 -102 1 -4 -5 -38 -14
-75 -9 -37 -17 -81 -19 -97 -2 -16 -11 -65 -20 -110 -9 -44 -22 -116 -30 -158
-8 -43 -22 -114 -30 -158 -63 -335 -76 -390 -103 -422 -34 -40 -58 -51 -82
-38 -18 10 -20 21 -20 104 0 52 -6 129 -14 172 -25 141 -40 278 -39 344 2 94
24 169 90 301 32 64 59 120 60 125 12 49 113 296 151 367 43 84 148 215 160
202 3 -3 -2 -49 -12 -103z m-538 -840 c8 -6 14 -45 18 -120 3 -62 3 -112 1
-112 -5 0 -64 34 -137 79 -25 15 -45 32 -45 39 0 10 133 122 145 122 3 0 11
-4 18 -8z m-1008 -187 l0 -85 -90 0 -90 0 0 85 0 85 90 0 90 0 0 -85z m240 0
l0 -85 -85 0 -85 0 0 85 0 85 85 0 85 0 0 -85z m-240 -220 l0 -85 -90 0 -90 0
0 85 0 85 90 0 90 0 0 -85z m240 0 l0 -85 -85 0 -85 0 0 85 0 85 85 0 85 0 0
-85z"/>
</g>
</svg>
